<svg width="78" height="78" viewBox="0 0 78 78" fill="none" xmlns="http://www.w3.org/2000/svg">
<circle cx="39" cy="39" r="39" fill="#E84553"/>
<path d="M19.8005 17.6139V36.6549C19.8005 37.7996 20.7285 38.7276 21.8733 38.7276H55.8182C56.9629 38.7276 57.8909 37.7996 57.8909 36.6549V17.6139C57.8909 13.4089 54.4822 10 50.2771 10C48.9831 10 47.7284 10.445 46.7236 11.2604L46.3058 11.5993C46.1791 11.7022 45.9995 11.7088 45.8655 11.6156L44.9945 11.0098C44.0493 10.3524 42.9255 10 41.7742 10H27.4144C23.2094 10 19.8005 13.4089 19.8005 17.6139Z" fill="#272727"/>
<path d="M50.2771 10C49.6339 10 49.0005 10.1102 48.4026 10.3208C51.5405 11.2612 53.8278 14.1698 53.8278 17.6138V36.6549C53.8278 37.7996 52.8998 38.7276 51.7551 38.7276H55.8183C56.963 38.7276 57.891 37.7996 57.891 36.6549V17.6139C57.8909 13.4089 54.4821 10 50.2771 10V10Z" fill="#272727"/>
<path d="M44.2793 50.0691H42.0474H35.6442H33.4124C28.971 50.0691 25.3706 53.6694 25.3706 58.1108V67.9758C25.3706 68.5415 25.8291 69 26.3948 69H51.2971C51.8628 69 52.3213 68.5415 52.3213 67.9758V58.1108C52.321 53.6694 48.7207 50.0691 44.2793 50.0691Z" fill="#9DC6FB"/>
<path d="M44.2793 50.0691H40.3608C44.8022 50.0691 48.4026 53.6694 48.4026 58.1108V67.9758C48.4026 68.5415 47.9441 69 47.3784 69H51.2968C51.8625 69 52.321 68.5415 52.321 67.9758V58.1108C52.321 53.6694 48.7206 50.0691 44.2793 50.0691Z" fill="#80B4FB"/>
<path d="M41.0872 44.1392L36.7874 43.8863C35.6895 43.8863 35.6414 49.0298 35.6414 49.0298V52.1786C35.6414 53.9467 37.0748 55.3802 38.843 55.3802C40.6112 55.3802 42.0447 53.9468 42.0447 52.1786V49.0299C42.0446 49.0299 42.1851 44.1392 41.0872 44.1392Z" fill="#F9A58E"/>
<path d="M38.8458 50.069C30.3132 50.069 23.396 43.152 23.396 34.6193V25.2749C23.396 25.0505 23.5784 24.8695 23.8028 24.869C30.9533 24.8559 37.273 23.8317 42.9101 20.189C43.0786 20.0802 43.3037 20.1149 43.4243 20.2751C45.97 23.6546 49.4418 24.5898 53.8906 24.8472C54.1175 24.8604 54.2955 25.0467 54.2955 25.274V34.6195C54.2955 43.1519 47.3785 50.069 38.8458 50.069Z" fill="#FFCBBE"/>
<path d="M53.8907 24.8471C52.5816 24.7714 51.3578 24.6361 50.2167 24.3979V34.6192C50.2167 42.4605 44.375 48.9366 36.8064 49.9348C37.4738 50.0228 38.1544 50.0689 38.8458 50.0689C47.3784 50.0689 54.2955 43.1519 54.2955 34.6192V25.2737C54.2956 25.0466 54.1176 24.8603 53.8907 24.8471Z" fill="#EAAC9D"/>
<path d="M33.5622 36.7049C33.0704 36.7049 32.6719 36.3063 32.6719 35.8146V33.9995C32.6719 33.5077 33.0705 33.1092 33.5622 33.1092C34.0539 33.1092 34.4525 33.5078 34.4525 33.9995V35.8146C34.4525 36.3063 34.054 36.7049 33.5622 36.7049Z" fill="#2B4D66"/>
<path d="M44.1571 36.7049C43.6653 36.7049 43.2668 36.3063 43.2668 35.8146V33.9995C43.2668 33.5077 43.6654 33.1092 44.1571 33.1092C44.6489 33.1092 45.0475 33.5078 45.0475 33.9995V35.8146C45.0475 36.3063 44.6489 36.7049 44.1571 36.7049Z" fill="#2B4D66"/>
<path d="M32.194 30.6582C31.9421 30.6582 31.6919 30.5519 31.5159 30.3453C31.1969 29.971 31.2419 29.409 31.6162 29.0902C32.7074 28.1608 34.4172 28.1606 35.5086 29.0901C35.8829 29.409 35.928 29.971 35.6091 30.3453C35.2903 30.7194 34.7284 30.7646 34.354 30.4457C33.9326 30.0866 33.1929 30.0864 32.771 30.4456C32.6033 30.5884 32.3981 30.6582 32.194 30.6582Z" fill="#272727"/>
<path d="M45.6428 30.6574C45.4386 30.6574 45.2336 30.5875 45.0659 30.4448C44.6441 30.0856 43.9048 30.0856 43.483 30.4448C43.1089 30.7638 42.5468 30.7186 42.228 30.3444C41.9091 29.9701 41.9541 29.4081 42.3284 29.0894C43.4198 28.1597 45.1293 28.1597 46.2207 29.0894C46.5949 29.4082 46.64 29.9701 46.321 30.3444C46.1448 30.551 45.8945 30.6574 45.6428 30.6574Z" fill="#272727"/>
<path d="M56.5642 31.9221H54.2955V33.7028H56.5642C58.1382 33.7028 59.4187 34.9833 59.4187 36.5572V39.6884C59.4187 41.2624 58.1382 42.5429 56.5642 42.5429H52.1106H45.2153C44.7234 42.5429 44.325 42.9415 44.325 43.4332C44.325 43.9249 44.7235 44.3235 45.2153 44.3235H50.8668H56.5642C59.12 44.3235 61.1993 42.2442 61.1993 39.6884V36.5572C61.1993 34.0013 59.12 31.9221 56.5642 31.9221Z" fill="#2B4D66"/>
<path d="M44.8085 45.3131H39.2685C38.3882 45.3131 37.6746 44.5995 37.6746 43.7192V43.1469C37.6746 42.2667 38.3882 41.553 39.2685 41.553H44.8085C45.6888 41.553 46.4024 42.2667 46.4024 43.1469V43.7192C46.4024 44.5996 45.6889 45.3131 44.8085 45.3131Z" fill="#365E7D"/>
<path d="M32.631 64.2707L30.4825 59.5379C30.4048 59.3667 30.4414 59.1654 30.5742 59.0326L32.7228 56.884C32.8988 56.7079 33.1844 56.7079 33.3605 56.884L35.509 59.0326C35.6419 59.1654 35.6784 59.3667 35.6007 59.5379L33.4522 64.2707C33.2921 64.6234 32.7911 64.6234 32.631 64.2707Z" fill="#E7A561"/>
<path d="M35.509 59.0326L33.3605 56.884C33.1844 56.7079 32.8988 56.7079 32.7228 56.884L31.9241 57.6827L33.5619 59.3205C33.6948 59.4534 33.7313 59.6547 33.6536 59.8258L32.1333 63.1747L32.6309 64.2708C32.7911 64.6235 33.292 64.6235 33.4522 64.2708L35.6007 59.538C35.6784 59.3667 35.6418 59.1654 35.509 59.0326Z" fill="#E49542"/>
</svg>
