<svg width="68" height="68" viewBox="0 0 68 68" fill="none" xmlns="http://www.w3.org/2000/svg">
<path d="M9.87461 31.8004C9.82294 31.4363 9.79678 31.0663 9.79718 30.6922C9.80103 26.6298 13.0196 23.2276 17.0761 23.01C21.5131 22.772 25.1989 26.3135 25.1989 30.6996V30.7109C25.1985 31.3099 25.6883 31.8001 26.2873 31.8001L30.7373 31.8C31.3241 31.8 31.7998 31.3242 31.7998 30.7375L31.7994 21.8989C31.7993 21.0653 32.2705 20.303 33.0163 19.9305C33.7624 19.5581 34.6545 19.6389 35.321 20.1396C35.9169 20.587 36.6319 20.8156 37.3834 20.7974C39.0598 20.7569 40.4633 19.4275 40.5908 17.7556C40.7385 15.82 39.2053 14.1975 37.3003 14.1975C36.5909 14.1975 35.9169 14.418 35.349 14.8356C34.8864 15.1758 34.3194 15.358 33.7496 15.2861C32.5926 15.14 31.7993 14.1788 31.7993 13.097V2.05859C31.7993 1.47183 31.3236 0.996094 30.7368 0.996094H3.1964C1.98116 0.996094 0.996094 1.98116 0.996094 3.1964V30.738C0.996094 31.3248 1.47183 31.8005 2.05859 31.8005H9.87461V31.8004Z" fill="#69CE78"/>
<path d="M36.2 9.02169C36.2 9.4694 36.5751 9.81777 37.0225 9.80209C37.1148 9.79891 37.2075 9.79731 37.3004 9.79731C41.6865 9.79731 45.2279 13.4831 44.9899 17.9203C44.7723 21.9775 41.3689 25.1964 37.3058 25.1992C37.2077 25.1992 37.1098 25.1975 37.0123 25.194C36.5664 25.1778 36.2001 25.5448 36.2001 25.9909L36.2003 30.7377C36.2003 31.3245 36.676 31.8002 37.2628 31.8002L46.0486 31.8001C46.7451 31.8001 47.4192 32.1028 47.843 32.6555C48.4571 33.4567 48.4449 34.5432 47.8603 35.3219C47.4128 35.9175 47.1844 36.6323 47.2025 37.3835C47.2428 39.0596 48.5716 40.4633 50.2435 40.5912C52.1795 40.7394 53.8023 39.206 53.8023 37.3008C53.8023 36.5916 53.5819 35.9178 53.1646 35.3499C52.8244 34.8871 52.6421 34.3199 52.7142 33.75C52.8605 32.5931 53.8216 31.8002 54.9031 31.8002H65.9414C66.5281 31.8002 67.0039 31.3245 67.0039 30.7377V3.1964C67.0039 1.9813 66.0188 0.996094 64.8036 0.996094H37.2625C36.6757 0.996094 36.2 1.47183 36.2 2.05859V9.02169Z" fill="#0E3147"/>
<path d="M30.9739 58.1982C30.6943 58.2079 30.4121 58.2027 30.1281 58.1825C26.362 57.9133 23.3187 54.8852 23.023 51.1209C22.6678 46.5965 26.2488 42.8011 30.6996 42.8011C30.7926 42.8011 30.8851 42.8027 30.9775 42.806C31.425 42.8217 31.8002 42.4733 31.8002 42.0255L31.8001 37.2631C31.8001 36.6763 31.3244 36.2006 30.7376 36.2006L21.9509 36.2007C21.2542 36.2007 20.58 35.8979 20.1563 35.3449C19.5424 34.5435 19.5549 33.4573 20.1396 32.6791C20.5869 32.0835 20.8153 31.3691 20.7975 30.6182C20.7578 28.942 19.4294 27.5377 17.7577 27.4093C15.8212 27.2604 14.1978 28.794 14.1978 30.6997C14.1978 31.4094 14.4185 32.0835 14.8365 32.6518C15.1768 33.1145 15.359 33.6815 15.2867 34.2513C15.1402 35.4081 14.1792 36.201 13.0977 36.201H2.05859C1.47183 36.201 0.996094 36.6767 0.996094 37.2635V64.8037C0.996094 66.0188 1.98116 67.0041 3.1964 67.0041H30.7373C31.3241 67.0041 31.7998 66.5283 31.7998 65.9416V58.982C31.7998 58.5323 31.4232 58.1825 30.9739 58.1982Z" fill="#F9D28D"/>
<path d="M58.1975 37.0101C58.2011 37.1073 58.2028 37.2049 58.2028 37.3028C58.2016 41.3557 55.0003 44.7558 50.954 44.9884C46.5036 45.244 42.8009 41.6966 42.8009 37.3005C42.8009 37.2077 42.8025 37.1151 42.8058 37.0228C42.8215 36.5755 42.4733 36.2004 42.0257 36.2004L37.263 36.2006C36.6763 36.2006 36.2005 36.6763 36.2005 37.2631L36.2008 46.1016C36.2008 47.0912 35.5371 47.98 34.5383 48.236C33.8798 48.4048 33.1864 48.2294 32.6367 47.8296C32.1045 47.4425 31.4804 47.2276 30.8216 47.204C29.069 47.141 27.5436 48.4942 27.4092 50.2427C27.2604 52.1791 28.7939 53.8025 30.6996 53.8025C31.4089 53.8025 32.0828 53.582 32.6507 53.1644C33.1134 52.8243 33.6804 52.6421 34.2502 52.7141C35.4071 52.8603 36.2003 53.8215 36.2003 54.9031V65.9414C36.2003 66.5282 36.676 67.0039 37.2628 67.0039H64.8036C66.0188 67.0039 67.0039 66.0188 67.0039 64.8036V37.2629C67.0039 36.6762 66.5281 36.2004 65.9414 36.2004H58.9916C58.5469 36.2004 58.1811 36.5657 58.1975 37.0101Z" fill="#E84553"/>
<path d="M64.8036 0.996094H61.7489C62.9641 0.996094 63.9492 1.98116 63.9492 3.1964V30.7375C63.9492 31.3242 63.4735 31.8 62.8867 31.8H65.9414C66.5282 31.8 67.0039 31.3242 67.0039 30.7375V3.1964C67.0039 1.98116 66.0188 0.996094 64.8036 0.996094Z" fill="#0E3147"/>
<path d="M42.994 31.7997L37.2616 31.7998H37.2629H42.9952L42.994 31.7997Z" fill="#0E3147"/>
<path d="M65.9414 36.2004H62.8867C63.4735 36.2004 63.9492 36.6762 63.9492 37.2629V64.8037C63.9492 66.0188 62.9641 67.0039 61.7489 67.0039H64.8036C66.0188 67.0039 67.0039 66.0188 67.0039 64.8037V37.2629C67.0039 36.676 66.5282 36.2004 65.9414 36.2004Z" fill="#C9646D"/>
<path d="M0.996094 32.7966H9.87461C10.1632 32.7966 10.4376 32.6715 10.6269 32.4534C10.816 32.2355 10.9014 31.9462 10.8607 31.6604C10.816 31.3449 10.7933 31.0215 10.7933 30.6997C10.7933 27.0026 13.8011 23.995 17.498 23.995C21.195 23.995 24.2028 27.0026 24.2028 30.6997C24.2028 31.0221 24.1801 31.3451 24.1354 31.6598C24.0947 31.9457 24.18 32.2351 24.3692 32.4531C24.5585 32.6712 24.8329 32.7963 25.1216 32.7963L31.8 32.7962C32.0641 32.7962 32.3175 32.6913 32.5043 32.5044C32.6911 32.3177 32.7961 32.0644 32.7961 31.8001L32.7957 21.8989C32.7955 21.4398 33.0509 21.0269 33.4613 20.8218C33.8725 20.6164 34.3558 20.6602 34.7232 20.9363C35.4709 21.4978 36.3622 21.7945 37.3005 21.7945C39.6696 21.7945 41.597 19.8672 41.597 17.498C41.597 15.1289 39.6695 13.2016 37.3004 13.2016C36.3618 13.2016 35.4706 13.4983 34.7232 14.0598C34.3557 14.3358 33.8722 14.3799 33.4617 14.1745C33.0508 13.9692 32.7955 13.5564 32.7955 13.0972V0.996094C32.7955 0.445852 32.3495 0 31.7994 0H3.1964C1.43384 0 0 1.43384 0 3.19627V5.81267C0 6.36291 0.445984 6.80877 0.996094 6.80877C1.5462 6.80877 1.99219 6.36291 1.99219 5.81267V3.19627C1.99219 2.53234 2.53234 1.99219 3.1964 1.99219H30.8035V13.0972C30.8035 14.3161 31.4809 15.4118 32.5715 15.9566C33.6617 16.5017 34.9448 16.3851 35.9197 15.6528C36.3194 15.3525 36.7968 15.1938 37.3004 15.1938C38.571 15.1938 39.6047 16.2274 39.6047 17.498C39.6047 18.7687 38.571 19.8023 37.3004 19.8023C36.7969 19.8023 36.3193 19.6436 35.9194 19.3433C34.945 18.6114 33.6623 18.4948 32.5711 19.0395C31.4807 19.5845 30.8033 20.6804 30.8033 21.8991L30.8036 30.804L26.1943 30.8041C26.1947 30.7693 26.195 30.7345 26.195 30.6997C26.195 25.9043 22.2935 22.0028 17.498 22.0028C12.7025 22.0028 8.80109 25.9043 8.80109 30.6997C8.80109 30.7347 8.80122 30.7695 8.80175 30.8044H1.99219V9.79718C1.99219 9.24694 1.5462 8.80109 0.996094 8.80109C0.445984 8.80109 0 9.24694 0 9.79718V31.8005C0 32.3506 0.445984 32.7966 0.996094 32.7966Z" fill="black"/>
<path d="M6.39269 11.9973V6.49639C6.39269 6.43901 6.43944 6.3924 6.49668 6.3924H11.9974C12.5475 6.3924 12.9935 5.94641 12.9935 5.3963C12.9935 4.84606 12.5475 4.40021 11.9974 4.40021H6.49681C5.34095 4.40021 4.40063 5.34052 4.40063 6.49639V11.9973C4.40063 12.5476 4.84662 12.9934 5.39673 12.9934C5.94684 12.9934 6.39269 12.5476 6.39269 11.9973Z" fill="black"/>
<path d="M61.5035 4.40033H56.0025C55.4524 4.40033 55.0064 4.84618 55.0064 5.39642C55.0064 5.94667 55.4524 6.39252 56.0025 6.39252H61.5035C61.5608 6.39252 61.6075 6.43927 61.6075 6.49651V11.9972C61.6075 12.5474 62.0534 12.9933 62.6036 12.9933C63.1537 12.9933 63.5996 12.5474 63.5996 11.9972V6.49651C63.5996 5.34064 62.6592 4.40033 61.5035 4.40033Z" fill="black"/>
<path d="M63.5997 61.5035V56.0024C63.5997 55.4521 63.1537 55.0063 62.6036 55.0063C62.0535 55.0063 61.6075 55.4521 61.6075 56.0024V61.5035C61.6075 61.5608 61.5607 61.6075 61.5035 61.6075H56.0028C55.4527 61.6075 55.0067 62.0533 55.0067 62.6036C55.0067 63.1538 55.4527 63.5997 56.0028 63.5997H61.5035C62.6592 63.5997 63.5997 62.6593 63.5997 61.5035Z" fill="black"/>
<path d="M11.9978 61.6073H6.49681C6.43944 61.6073 6.39282 61.5606 6.39282 61.5032V56.0027C6.39282 55.4524 5.94684 55.0066 5.39673 55.0066C4.84662 55.0066 4.40063 55.4524 4.40063 56.0027V61.5032C4.40063 62.6591 5.34108 63.5995 6.49681 63.5995H11.9978C12.5479 63.5995 12.9939 63.1537 12.9939 62.6034C12.9939 62.0533 12.5479 61.6073 11.9978 61.6073Z" fill="black"/>
<path d="M64.8036 0H36.2C35.6499 0 35.2039 0.445852 35.2039 0.996094V9.87448C35.2039 10.1631 35.329 10.4375 35.5471 10.6267C35.765 10.8159 36.0542 10.9009 36.3401 10.8607C36.655 10.816 36.978 10.7933 37.3004 10.7933C40.9973 10.7933 44.0051 13.8009 44.0051 17.498C44.0051 21.1951 40.9973 24.2028 37.3004 24.2028C36.9788 24.2028 36.6557 24.1801 36.34 24.1354C36.0543 24.0951 35.7649 24.1802 35.5471 24.3695C35.3292 24.5588 35.2041 24.833 35.2041 25.1216L35.2043 31.7998C35.2043 32.3501 35.6503 32.7959 36.2004 32.7959L46.1011 32.7958C46.5603 32.7958 46.9731 33.0511 47.1783 33.4618C47.3835 33.8728 47.3397 34.3559 47.0639 34.723C46.5023 35.4706 46.2054 36.3619 46.2054 37.3003C46.2054 39.6694 48.1328 41.5969 50.5019 41.5969C52.871 41.5969 54.7984 39.6694 54.7984 37.3003C54.7984 36.3619 54.5016 35.4708 53.94 34.7232C53.6643 34.3559 53.6205 33.8728 53.8258 33.462C54.031 33.0512 54.4438 32.7959 54.9029 32.7959H67.0039C67.554 32.7959 68 32.3501 68 31.7998V3.19627C68 1.43384 66.5661 0 64.8036 0V0ZM66.0078 30.8039H54.9029C53.6838 30.8039 52.5883 31.4813 52.0436 32.5717C51.4987 33.6623 51.615 34.9451 52.3471 35.9197C52.6474 36.3196 52.8062 36.7972 52.8062 37.3005C52.8062 38.5711 51.7725 39.605 50.5019 39.605C49.2313 39.605 48.1976 38.5713 48.1976 37.3005C48.1976 36.7972 48.3563 36.3196 48.6568 35.9197C49.3888 34.9451 49.5052 33.6623 48.9605 32.5717C48.4157 31.4812 47.32 30.8037 46.1011 30.8037L37.1965 30.8039L37.1962 26.1945C42.0415 26.2476 45.9975 22.3284 45.9975 17.498C45.9975 12.7026 42.0961 8.80109 37.3005 8.80109C37.2657 8.80109 37.231 8.80135 37.1962 8.80175V1.99219H64.8037C65.4676 1.99219 66.0079 2.53234 66.0079 3.19627V30.8039H66.0078Z" fill="black"/>
<path d="M32.4529 57.3734C32.2349 57.184 31.9458 57.0989 31.66 57.1393C31.3443 57.184 31.0211 57.2067 30.6996 57.2067C27.0026 57.2067 23.9948 54.1991 23.9948 50.502C23.9948 46.8049 27.0026 43.7972 30.6996 43.7972C31.0213 43.7972 31.3447 43.8199 31.6605 43.8647C31.9467 43.9058 32.2355 43.8198 32.4534 43.6305C32.6713 43.4413 32.7965 43.167 32.7965 42.8784L32.7962 36.2006C32.7962 35.6503 32.3502 35.2045 31.8001 35.2045L21.8988 35.2046C21.4395 35.2046 21.0267 34.9494 20.8214 34.5384C20.6162 34.1276 20.66 33.6445 20.936 33.2772C21.4977 32.5294 21.7945 31.6381 21.7945 30.6998C21.7945 28.3306 19.8672 26.4031 17.498 26.4031C15.1289 26.4031 13.2016 28.3305 13.2016 30.6996C13.2016 31.6379 13.4985 32.5294 14.0605 33.2775C14.3363 33.6446 14.3801 34.1278 14.1749 34.5386C13.9697 34.9495 13.557 35.2048 13.0977 35.2048H0.996094C0.445984 35.2048 0 35.6506 0 36.2008V64.8036C0 66.5662 1.43384 68 3.1964 68H31.7998C32.3499 68 32.7959 67.5542 32.7959 67.0039V58.1255C32.7959 57.8369 32.6707 57.5625 32.4529 57.3734ZM30.8037 66.0078H3.1964C2.53234 66.0078 1.99219 65.4677 1.99219 64.8037V37.1969H13.0976C14.3167 37.1969 15.4124 36.5193 15.957 35.4289C16.5018 34.3383 16.3853 33.0554 15.653 32.081C15.3525 31.6807 15.1936 31.2032 15.1936 30.6998C15.1936 29.4291 16.2273 28.3953 17.4979 28.3953C18.7685 28.3953 19.8022 29.429 19.8022 30.6998C19.8022 31.2032 19.6434 31.6808 19.3431 32.0806C18.6106 33.0553 18.4941 34.3383 19.0391 35.4288C19.5839 36.5193 20.6796 37.1967 21.8985 37.1967L30.8037 37.1965L30.8039 41.8055C30.7691 41.8051 30.7341 41.8049 30.6993 41.8049C25.9039 41.8049 22.0024 45.7064 22.0024 50.5018C22.0024 55.2973 25.9039 59.1988 30.6993 59.1988C30.734 59.1988 30.7687 59.1985 30.8035 59.1981V66.0078H30.8037Z" fill="black"/>
<path d="M67.0039 35.2042H58.1255C57.8369 35.2042 57.5624 35.3293 57.3733 35.5474C57.1842 35.7653 57.0988 36.0546 57.1394 36.3404C57.1842 36.6554 57.2069 36.9784 57.2069 37.3004C57.2069 40.9975 54.1991 44.0052 50.5021 44.0052C46.8051 44.0052 43.7973 40.9974 43.7973 37.3004C43.7973 36.9784 43.82 36.6554 43.8648 36.3403C43.9054 36.0546 43.82 35.7652 43.6309 35.5473C43.4416 35.3292 43.1673 35.2041 42.8787 35.2041L36.2008 35.2042C35.9367 35.2042 35.6833 35.3091 35.4965 35.496C35.3097 35.6827 35.2047 35.9361 35.2047 36.2003L35.2051 46.1015C35.2051 46.5607 34.9499 46.9736 34.539 47.1788C34.128 47.384 33.6447 47.3399 33.2774 47.0641C32.5298 46.5024 31.6385 46.2055 30.6997 46.2055C28.3306 46.2055 26.4033 48.1328 26.4033 50.5019C26.4033 52.8711 28.3306 54.7984 30.6997 54.7984C31.6381 54.7984 32.5292 54.5017 33.277 53.9402C33.6443 53.6643 34.1275 53.6205 34.5384 53.8258C34.9492 54.031 35.2043 54.4437 35.2043 54.903V67.0039C35.2043 67.5541 35.6503 68 36.2004 68H58.7031C59.2532 68 59.6992 67.5541 59.6992 67.0039C59.6992 66.4537 59.2532 66.0078 58.7031 66.0078H37.1964V54.903C37.1964 53.6839 36.5189 52.5882 35.4285 52.0436C34.3381 51.4988 33.0552 51.615 32.0803 52.3472C31.6804 52.6475 31.203 52.8062 30.6995 52.8062C29.4289 52.8062 28.3952 51.7726 28.3952 50.5019C28.3952 49.2313 29.4289 48.1976 30.6995 48.1976C31.2031 48.1976 31.6806 48.3564 32.0803 48.6568C33.055 49.3894 34.3383 49.506 35.4287 48.9611C36.5193 48.4163 37.1968 47.3204 37.1968 46.1015L37.1964 37.1964L41.8053 37.1963C41.8049 37.2311 41.8047 37.2656 41.8047 37.3002C41.8047 42.0957 45.7062 45.9972 50.5017 45.9972C55.2973 45.9972 59.1987 42.0957 59.1987 37.3002C59.1987 37.2656 59.1985 37.2309 59.1981 37.1964H66.0078V64.8036C66.0078 65.4675 65.4677 66.0077 64.8036 66.0077H62.6036C62.0535 66.0077 61.6075 66.4535 61.6075 67.0038C61.6075 67.554 62.0535 67.9999 62.6036 67.9999H64.8036C66.566 67.9999 68 66.566 68 64.8036V36.2003C68 35.6502 67.554 35.2042 67.0039 35.2042Z" fill="black"/>
</svg>
